<svg width="32" height="32" viewBox="0 0 32 32" fill="none" xmlns="http://www.w3.org/2000/svg">
  <defs>
    <linearGradient id="gradient" x1="0%" y1="0%" x2="100%" y2="100%">
      <stop offset="0%" stop-color="#3b82f6"/>
      <stop offset="100%" stop-color="#8b5cf6"/>
    </linearGradient>
  </defs>
  <circle cx="16" cy="16" r="16" fill="url(#gradient)"/>
  <path d="M8 18.67a1 1 0 0 1-.78-1.63l7.9-9.87a.5.5 0 0 1 .86.46l-1.52 4.77a1 1 0 0 0 .94 1.3h5.6a1 1 0 0 1 .78 1.63l-7.9 9.87a.5.5 0 0 1-.86-.46l1.52-4.77a1 1 0 0 0-.94-1.3z" fill="white" stroke="white" stroke-width="0.5" stroke-linecap="round" stroke-linejoin="round"/>
</svg>
